<svg xmlns="http://www.w3.org/2000/svg" width="171.88" height="183.551" viewBox="0 0 171.88 183.551"><defs><style>.a{opacity:0.754;}.b{fill:#ed635f;}</style></defs><g class="a"><path class="b" d="M187.28,66.9a23.6,23.6,0,0,0-4.18-7.166c-1.259-1.544-2.6-2.958-3.932-4.3-2-2.007-3.956-3.869-5.537-5.628a18.816,18.816,0,0,1-3.346-4.715c-.564-1.276-1.259-2.967-2.1-4.91a106.607,106.607,0,0,0-5.951-11.965,69.23,69.23,0,0,0-7.026-9.938A51.947,51.947,0,0,0,139.016,5.425,53.323,53.323,0,0,0,114.8,0,53.21,53.21,0,0,0,90.266,5.588,50.645,50.645,0,0,0,77.35,15.072,69.27,69.27,0,0,0,65.322,31.906c-1.423,2.708-2.6,5.27-3.588,7.529s-1.788,4.217-2.426,5.655a19.078,19.078,0,0,1-3.415,4.8c-1.216,1.334-2.648,2.743-4.142,4.223a56.489,56.489,0,0,0-6.641,7.454,21.8,21.8,0,0,0-2.579,4.743,16.037,16.037,0,0,0-1.092,5.755,15.842,15.842,0,0,0,.65,4.456,19.22,19.22,0,0,0,1.923,4.369,17.524,17.524,0,0,0,3.3,4.122A16.467,16.467,0,0,0,53.642,88.6a22.247,22.247,0,0,0,6.572.908,39.612,39.612,0,0,0,5.8-.474c2.794-.414,5.448-.994,7.8-1.443a33.458,33.458,0,0,1,5.8-.747,5.286,5.286,0,0,1,1.673.2l-.46-.166.463.166c.3.109.6.242.908.374.086.179.181.36.288.535a25.059,25.059,0,0,1,3.872,13.436,31.027,31.027,0,0,1-4.683,15.874A45.333,45.333,0,0,1,71.114,129.2c1.966,2.145,3.9,4.335,5.784,6.468.457.523.92,1.035,1.366,1.549a55.722,55.722,0,0,0,12.623-14.451,41.815,41.815,0,0,0,6.192-20.9c.009-.158.009-.319.009-.48A36.049,36.049,0,0,0,96.55,95.2c.336.144.667.3,1.017.437.888.362,1.825.7,2.794,1.015.207,1.613.394,3.289.549,5.022v.017c.3,3.455.492,7.135.492,10.915a96.585,96.585,0,0,1-2,20.195,60.637,60.637,0,0,1-4.692,13.937,45.458,45.458,0,0,1-2.59,4.6l9.059,5.746c.253-.383.492-.777.73-1.164a67.593,67.593,0,0,0,8.061-21.224,107.485,107.485,0,0,0,2.156-22.092,135.074,135.074,0,0,0-.727-13.865c1.1.075,2.222.121,3.4.121s2.3-.034,3.4-.109a202.943,202.943,0,0,0,2.849,32.7,117.232,117.232,0,0,0,5.079,19.491c.483,1.311.972,2.57,1.481,3.786a30.4,30.4,0,0,1-3.165,2.331,38.439,38.439,0,0,1-6.678,3.429,24.856,24.856,0,0,1-9.34,1.935,21.475,21.475,0,0,1-5.718-.779,22.688,22.688,0,0,1-2.285-.739c-.489-.184-.98-.391-1.469-.621a33.963,33.963,0,0,1-5.344-3.019c-1.242-.845-2.484-1.785-3.717-2.806-.972-.793-1.941-1.65-2.895-2.521-1.734-1.6-3.458-3.323-5.175-5.131-1.351-1.415-2.7-2.886-4.042-4.378-.848-.951-1.708-1.909-2.558-2.875-2.372-2.691-4.761-5.419-7.187-8.055q-1.324-1.436-2.654-2.831c-.414-.426-.828-.851-1.242-1.262A70.48,70.48,0,0,0,54.5,119.1a33.539,33.539,0,0,0-11.2-5.249,5.369,5.369,0,0,0-2.507,10.441,21.461,21.461,0,0,1,6.572,2.95,49.786,49.786,0,0,1,7.354,5.962c1.046.989,2.087,2.047,3.145,3.145-.989.29-1.992.532-3,.747-.448.1-.9.184-1.363.267a79.443,79.443,0,0,1-8.593,1.026c-2.512.2-5.019.348-7.509.592a52.91,52.91,0,0,0-5.588.816,24.985,24.985,0,0,0-8.185,3.125,19.14,19.14,0,0,0-3.662,2.964,20.234,20.234,0,0,0-2.976,4,5.367,5.367,0,1,0,9.323,5.321,8.722,8.722,0,0,1,2.274-2.685,10.269,10.269,0,0,1,2.682-1.446,29.255,29.255,0,0,1,7.38-1.429c4.507-.46,10.047-.575,16.087-1.6A56.141,56.141,0,0,0,61.8,146.36c.764-.241,1.529-.5,2.306-.782.52-.193,1.04-.4,1.57-.615.885.994,1.771,2.009,2.668,3.021.483.532.957,1.072,1.44,1.607,2.949,3.274,5.994,6.555,9.236,9.59.963.9,1.952,1.794,2.961,2.653A36.273,36.273,0,0,1,78.5,163.89c-.684.356-1.4.693-2.127,1.017a48.25,48.25,0,0,1-19.5,3.648,79.429,79.429,0,0,1-9.881-.652,5.365,5.365,0,0,0-1.331,10.648,89.727,89.727,0,0,0,11.211.73,65.554,65.554,0,0,0,14.983-1.63,48.343,48.343,0,0,0,15.94-6.807,41.345,41.345,0,0,0,3.366-2.473,39.333,39.333,0,0,0,3.737,1.86c.612.288,1.242.541,1.88.776a33,33,0,0,0,11.643,2.154,35.581,35.581,0,0,0,13.327-2.7,48.239,48.239,0,0,0,7.624-3.823c1.1-.676,2.165-1.4,3.177-2.145.489.794.98,1.57,1.481,2.311.21.308.417.609.624.9a48.213,48.213,0,0,0,8.584,9.366,39.1,39.1,0,0,0,10.047,6.08,5.367,5.367,0,0,0,4.085-9.927,29.427,29.427,0,0,1-9.717-6.641A40.045,40.045,0,0,1,142.6,160.3c-.655-.994-1.308-2.053-1.946-3.185-.052-.1-.1-.19-.153-.293a68.545,68.545,0,0,1-5.062-11.786q-.888-2.656-1.679-5.635c-.532-2-1.029-4.088-1.48-6.3A188.7,188.7,0,0,1,128.9,96.773a45.149,45.149,0,0,0,6.022-2.438,91.588,91.588,0,0,1,5.264,28.983,54.8,54.8,0,0,1-1.265,12.106,42.536,42.536,0,0,1-1.15,4.143v.009a74.571,74.571,0,0,0,5.221,13.782,44.713,44.713,0,0,0,4.352-8.7,60.723,60.723,0,0,0,3.574-21.334c-.011-11.387-2.507-23.216-6.52-34.382.034-.02.077-.049.115-.066a25.39,25.39,0,0,1,3.795-1.828,5.532,5.532,0,0,1,1.676-.2,23.589,23.589,0,0,1,3.559.348c2.113.336,4.614.894,7.293,1.383a48.334,48.334,0,0,0,8.55.934,24.229,24.229,0,0,0,4.346-.368,17.434,17.434,0,0,0,6.56-2.573,17.076,17.076,0,0,0,5.3-5.675,19.194,19.194,0,0,0,1.921-4.369,15.8,15.8,0,0,0,.65-4.456A15.967,15.967,0,0,0,187.28,66.9ZM177.212,73.51a8.831,8.831,0,0,1-.868,1.941,7.008,7.008,0,0,1-1.3,1.644,5.626,5.626,0,0,1-2.242,1.248,11.628,11.628,0,0,1-3.415.434,29.612,29.612,0,0,1-4.249-.356c-2.306-.339-4.807-.877-7.342-1.366a42.137,42.137,0,0,0-7.811-.94,15.444,15.444,0,0,0-5.341.851,41.275,41.275,0,0,0-7.052,3.524,69.565,69.565,0,0,1-9.608,5.215A33.847,33.847,0,0,1,114.8,88.137a35.723,35.723,0,0,1-9.475-1.182,39.387,39.387,0,0,1-10.179-4.574c-1.555-.929-3.107-1.9-4.769-2.846a35.66,35.66,0,0,0-5.422-2.57l.483.172-.477-.172a15.56,15.56,0,0,0-5.347-.854,33.678,33.678,0,0,0-5.252.486c-2.573.414-5.114.983-7.538,1.425a37.652,37.652,0,0,1-6.609.753,13.965,13.965,0,0,1-2.432-.193,6.767,6.767,0,0,1-2.559-.963,6.357,6.357,0,0,1-1.964-2.17,8.542,8.542,0,0,1-.874-1.941,4.933,4.933,0,0,1,.084-3.133A13.278,13.278,0,0,1,54.824,66.5c.9-1.107,2.009-2.285,3.228-3.513,1.831-1.851,3.9-3.806,5.876-5.982a29.142,29.142,0,0,0,5.2-7.572c.65-1.472,1.334-3.145,2.138-5a97.5,97.5,0,0,1,5.353-10.786,59.313,59.313,0,0,1,5.928-8.394A41.156,41.156,0,0,1,95.391,15.02,42.58,42.58,0,0,1,114.8,10.725a42.494,42.494,0,0,1,19.657,4.419,39.981,39.981,0,0,1,10.188,7.5,58.525,58.525,0,0,1,10.128,14.242c1.259,2.4,2.328,4.726,3.26,6.851s1.713,4.039,2.444,5.695a29.166,29.166,0,0,0,5.29,7.673c1.5,1.659,3.064,3.182,4.53,4.634a48.045,48.045,0,0,1,5.41,5.985,11.654,11.654,0,0,1,1.34,2.418,5.289,5.289,0,0,1,.379,1.926A4.929,4.929,0,0,1,177.212,73.51Z" transform="translate(-16.279 0)"/><path class="b" d="M234.524,127.626A5.173,5.173,0,1,0,239.7,132.8,5.174,5.174,0,0,0,234.524,127.626Z" transform="translate(-152.965 -81.872)"/><path class="b" d="M324.309,127.626a5.173,5.173,0,1,0,5.175,5.172A5.17,5.17,0,0,0,324.309,127.626Z" transform="translate(-210.562 -81.872)"/></g></svg>