<!--?xml version="1.0" encoding="utf-8"?-->
<!-- Generator: Adobe Illustrator 18.0.0, SVG Export Plug-In . SVG Version: 6.00 Build 0)  -->

<svg version="1.1" id="_x32_" xmlns="http://www.w3.org/2000/svg" xmlns:xlink="http://www.w3.org/1999/xlink" x="0px" y="0px" viewBox="0 0 512 512" style="width: 256px; height: 256px; opacity: 1;" xml:space="preserve">
<style type="text/css">
	.st0{fill:#4B4B4B;}
</style>
<g>
	<path class="st0" d="M402.006,0H109.994c-12.76,0-23.106,10.346-23.106,23.108v465.785c0,12.762,10.346,23.108,23.106,23.108
		h292.012c12.762,0,23.105-10.346,23.105-23.108V23.108C425.111,10.346,414.768,0,402.006,0z M256,480.121
		c-20.396,0-36.932-16.533-36.932-36.932c0-20.397,16.535-36.93,36.932-36.93c20.396,0,36.932,16.533,36.932,36.93
		C292.932,463.588,276.396,480.121,256,480.121z M392.59,381.967H119.41V61.588h273.18V381.967z" style="fill: rgb(75, 75, 75);"></path>
</g>
</svg>
